<svg width="129" height="129" viewBox="0 0 129 129" fill="none" xmlns="http://www.w3.org/2000/svg">
<path d="M85.9442 46.3851L42.9442 71.2351C42.1524 71.6876 41.2562 71.9257 40.3442 71.9257C39.4322 71.9257 38.536 71.6876 37.7442 71.2351L23.9742 63.3051C23.1935 62.8427 22.5474 62.1841 22.1 61.3947C21.6527 60.6052 21.4197 59.7125 21.4242 58.8051V42.9451C21.4248 42.0329 21.6653 41.1369 22.1217 40.347C22.5781 39.5571 23.2342 38.9012 24.0242 38.4451L37.7542 30.5151C38.546 30.0626 39.4422 29.8246 40.3542 29.8246C41.2662 29.8246 42.1624 30.0626 42.9542 30.5151L56.6842 38.4451C57.4742 38.9012 58.1303 39.5571 58.5867 40.347C59.0431 41.1369 59.2836 42.0329 59.2842 42.9451V50.5551C59.2845 50.7822 59.3442 51.0053 59.4575 51.2021C59.5708 51.3989 59.7337 51.5626 59.9299 51.6769C60.1261 51.7912 60.3489 51.8521 60.5759 51.8535C60.803 51.855 61.0265 51.7969 61.2242 51.6851L68.3742 47.5551C68.768 47.3266 69.0946 46.9982 69.3211 46.6032C69.5476 46.2082 69.6659 45.7605 69.6642 45.3051V36.9451C69.6636 36.0341 69.4242 35.1391 68.9697 34.3495C68.5152 33.5599 67.8617 32.9033 67.0742 32.4451L42.9042 18.5251C42.114 18.0677 41.2172 17.8269 40.3042 17.8269C39.3912 17.8269 38.4944 18.0677 37.7042 18.5251L13.5842 32.4451C12.7942 32.9012 12.1381 33.5571 11.6817 34.347C11.2253 35.1369 10.9848 36.0329 10.9842 36.9451V64.8051C10.9848 65.7173 11.2253 66.6134 11.6817 67.4032C12.1381 68.1931 12.7942 68.849 13.5842 69.3051L37.7042 83.2251C38.4944 83.6825 39.3912 83.9233 40.3042 83.9233C41.2172 83.9233 42.114 83.6825 42.9042 83.2251L85.9042 58.3751C86.696 57.9226 87.5922 57.6846 88.5042 57.6846C89.4162 57.6846 90.3124 57.9226 91.1042 58.3751L104.834 66.3051C105.624 66.7612 106.28 67.4171 106.737 68.207C107.193 68.9969 107.434 69.8929 107.434 70.8051V86.6651C107.434 87.5773 107.193 88.4734 106.737 89.2632C106.28 90.0531 105.624 90.709 104.834 91.1651L91.1442 99.0951C90.3524 99.5476 89.4562 99.7857 88.5442 99.7857C87.6322 99.7857 86.736 99.5476 85.9442 99.0951L72.2142 91.1651C71.4242 90.709 70.7681 90.0531 70.3117 89.2632C69.8553 88.4734 69.6148 87.5773 69.6142 86.6651V79.0451C69.6152 78.8177 69.5561 78.5941 69.4428 78.3969C69.3295 78.1997 69.1661 78.0359 68.9692 77.9222C68.7722 77.8085 68.5487 77.7489 68.3213 77.7494C68.0939 77.7499 67.8706 77.8105 67.6742 77.9251L60.5242 82.0451C60.131 82.2744 59.805 82.6029 59.5786 82.9978C59.3522 83.3926 59.2335 83.84 59.2342 84.2951V92.6651C59.2348 93.5762 59.4742 94.4711 59.9287 95.2607C60.3832 96.0503 61.0367 96.707 61.8242 97.1651L85.9442 111.085C86.7344 111.542 87.6312 111.783 88.5442 111.783C89.4572 111.783 90.354 111.542 91.1442 111.085L115.264 97.1651C116.054 96.709 116.71 96.0531 117.167 95.2632C117.623 94.4734 117.864 93.5773 117.864 92.6651V64.8051C117.864 63.8929 117.623 62.9969 117.167 62.207C116.71 61.4171 116.054 60.7612 115.264 60.3051L91.1442 46.3851C90.354 45.9277 89.4572 45.6869 88.5442 45.6869C87.6312 45.6869 86.7344 45.9277 85.9442 46.3851Z" fill="black"/>
</svg>
