<svg width="20" height="20" viewBox="0 0 24 24" fill="fill-current" xmlns="http://www.w3.org/2000/svg">
  <path
    d="M17.0928 8.66067C16.9011 8.55352 16.6852 8.49726 16.4655 8.49726C16.2459 8.49726 16.0299 8.55352 15.8382 8.66067L12.9598 10.3302L11.0041 11.419L8.12581 13.0885C7.93406 13.1956 7.71811 13.2518 7.4985 13.2518C7.2789 13.2518 7.06294 13.1956 6.8712 13.0885L4.58321 11.7819C4.39705 11.6752 4.24156 11.5222 4.13175 11.3379C4.02194 11.1535 3.96152 10.9439 3.95632 10.7294V8.15255C3.95374 7.9364 4.01091 7.72373 4.12153 7.53801C4.23215 7.35228 4.39192 7.20072 4.58321 7.10004L6.83425 5.82975C7.02599 5.7227 7.24194 5.66649 7.46155 5.66649C7.68116 5.66649 7.89711 5.7227 8.08885 5.82975L10.3399 7.10004C10.526 7.20679 10.6815 7.35973 10.7913 7.5441C10.9012 7.72846 10.9616 7.93803 10.9668 8.15255V9.82207L12.9225 8.69696V7.02745C12.9251 6.81129 12.8679 6.59863 12.7573 6.4129C12.6467 6.22718 12.4869 6.07562 12.2956 5.97493L8.12581 3.57971C7.93406 3.47265 7.71811 3.41644 7.4985 3.41644C7.2789 3.41644 7.06294 3.47265 6.8712 3.57971L2.62698 5.97509C2.43571 6.07577 2.27596 6.2273 2.16534 6.413C2.05473 6.59869 1.99754 6.81132 2.00008 7.02745V11.8545C1.99751 12.0707 2.05468 12.2833 2.1653 12.4691C2.27592 12.6548 2.43568 12.8063 2.62698 12.907L6.8707 15.3024C7.06245 15.4095 7.2784 15.4657 7.49801 15.4657C7.71762 15.4657 7.93357 15.4095 8.12531 15.3024L11.0036 13.6692L12.9593 12.5441L15.8377 10.9109C16.0294 10.8037 16.2454 10.7475 16.465 10.7475C16.6847 10.7475 16.9006 10.8037 17.0923 10.9109L19.3434 12.1812C19.5295 12.2879 19.685 12.4409 19.7948 12.6252C19.9046 12.8096 19.9651 13.0192 19.9703 13.2337V15.8105C19.9728 16.0267 19.9157 16.2394 19.8051 16.4251C19.6944 16.6108 19.5347 16.7624 19.3434 16.8631L17.0923 18.1696C16.9006 18.2767 16.6846 18.3329 16.465 18.3329C16.2454 18.3329 16.0295 18.2767 15.8377 18.1696L13.5867 16.8993C13.4006 16.7926 13.2451 16.6396 13.1353 16.4553C13.0255 16.2709 12.965 16.0614 12.9598 15.8468V14.1772L11.0041 15.3023V16.9718C11.0015 17.1879 11.0587 17.4006 11.1693 17.5863C11.2799 17.772 11.4397 17.9236 11.631 18.0243L15.8747 20.4197C16.0664 20.5267 16.2824 20.5829 16.502 20.5829C16.7216 20.5829 16.9376 20.5267 17.1293 20.4197L21.373 18.0243C21.5592 17.9175 21.7147 17.7646 21.8245 17.5802C21.9343 17.3959 21.9947 17.1863 21.9999 16.9718V12.1449C22.0025 11.9287 21.9453 11.716 21.8347 11.5303C21.7241 11.3446 21.5643 11.193 21.373 11.0923L17.0928 8.66067Z" />
</svg>