<svg width="258" height="23" viewBox="0 0 258 23" fill="none" xmlns="http://www.w3.org/2000/svg">
<path d="M7.488 18.896V14.096H29.376V18.896H7.488ZM0.32 22L14.048 1.52H22.944L36.8 22H28L16.128 3.664H20.896L9.12 22H0.32ZM47.365 1.52V15.92H66.021V22H39.365V1.52H47.365ZM74.8005 18.896V14.096H96.6885V18.896H74.8005ZM67.6325 22L81.3605 1.52H90.2565L104.113 22H95.3125L83.4405 3.664H88.2085L76.4325 22H67.6325ZM138.774 15.728L135.798 17.424V1.52H143.798V22H135.798L111.702 8.048L114.678 6.32V22H106.678V1.52H114.678L138.774 15.728ZM146.991 1.52H180.271V7.6H146.991V1.52ZM159.631 7.184H167.631V22H159.631V7.184ZM200.905 22.64C196.254 22.64 192.51 22.2347 189.673 21.424C186.836 20.592 184.766 19.376 183.465 17.776C182.185 16.1547 181.545 14.1493 181.545 11.76C181.545 9.37067 182.185 7.376 183.465 5.776C184.766 4.15467 186.836 2.93867 189.673 2.128C192.51 1.296 196.254 0.879999 200.905 0.879999C205.556 0.879999 209.3 1.296 212.137 2.128C214.974 2.93867 217.033 4.15467 218.313 5.776C219.614 7.376 220.265 9.37067 220.265 11.76C220.265 14.1493 219.614 16.1547 218.313 17.776C217.033 19.376 214.974 20.592 212.137 21.424C209.3 22.2347 205.556 22.64 200.905 22.64ZM200.905 16.56C203.102 16.56 205.001 16.432 206.601 16.176C208.201 15.8987 209.438 15.4187 210.313 14.736C211.188 14.032 211.625 13.04 211.625 11.76C211.625 10.48 211.188 9.49867 210.313 8.816C209.438 8.112 208.201 7.632 206.601 7.376C205.001 7.09867 203.102 6.96 200.905 6.96C198.708 6.96 196.777 7.09867 195.113 7.376C193.47 7.632 192.18 8.112 191.241 8.816C190.324 9.49867 189.865 10.48 189.865 11.76C189.865 13.04 190.324 14.032 191.241 14.736C192.18 15.4187 193.47 15.8987 195.113 16.176C196.777 16.432 198.708 16.56 200.905 16.56ZM227.769 18.896V14.096H249.657V18.896H227.769ZM220.601 22L234.329 1.52H243.225L257.081 22H248.281L236.409 3.664H241.177L229.401 22H220.601Z" fill="white"/>
</svg>
